<svg xmlns="http://www.w3.org/2000/svg" viewBox="0 0 596.1 104.78"><defs><style>.cls-21{fill:#fff;}</style></defs><g id="Capa_2" data-name="Capa 2"><g id="Capa_1-2" data-name="Capa 1"><path class="cls-21" d="M207.3,26.47V62.29c0,6.95,4.47,10.83,10.42,10.83,5.79,0,10.51-3.88,10.51-10.83V26.47h7.38a4.78,4.78,0,0,1,4.78,4.78v31c0,14.64-10.26,21.92-22.67,21.92-12.24,0-22.5-7.28-22.5-21.92v-31A4.78,4.78,0,0,1,200,26.47Z"/><path class="cls-21" d="M319,26.47V78.94a4.78,4.78,0,0,1-4.78,4.77h-7.38V31.25a4.78,4.78,0,0,1,4.78-4.78Z"/><path class="cls-21" d="M379,37.28s-15.47.15-21.84.15c-9.09,0-14.64,6.13-14.64,18.37s5.55,17.29,14.64,17.29H379v5.85a4.78,4.78,0,0,1-4.78,4.77H357.18c-15.3,0-26.71-8.72-26.71-28,0-19.1,11.33-29.31,26.8-29.31l17,0A4.74,4.74,0,0,1,379,31.15Z"/><path class="cls-21" d="M425,26.47V63.28h0a5.54,5.54,0,0,1,5.54,5.54v4.06H425V83.71H413.82V72.88H386V66.49a12.15,12.15,0,0,1,2.6-7.5L411.92,29.5a8,8,0,0,1,6.25-3ZM413.82,63.28V42.85L397.53,63.28Z"/><path class="cls-21" d="M452.28,31.25v41.3h27.29v6.39a4.78,4.78,0,0,1-4.77,4.77H440.2V26.47h7.3A4.78,4.78,0,0,1,452.28,31.25Z"/><path class="cls-21" d="M500.16,31.25V83.71h-7.38A4.78,4.78,0,0,1,488,78.94V26.47h7.39A4.77,4.77,0,0,1,500.16,31.25Z"/><path class="cls-21" d="M549.38,31.25v6.39H525.47V49.88h17V56a4.78,4.78,0,0,1-4.78,4.78H525.47V83.71h-7.3a4.78,4.78,0,0,1-4.78-4.77V26.47H544.6A4.78,4.78,0,0,1,549.38,31.25Z"/><path class="cls-21" d="M595.53,31.25v6.39H569.88v11.5h18.2v6a4.78,4.78,0,0,1-4.77,4.78H569.88V72.55H596.1v6.39a4.77,4.77,0,0,1-4.77,4.77H562.58a4.78,4.78,0,0,1-4.77-4.77V26.47h32.94A4.78,4.78,0,0,1,595.53,31.25Z"/><path class="cls-21" d="M139.57,29.16l15.6,34.34,15.6-34.34a4.77,4.77,0,0,1,4.34-2.8h9V72.65A12.38,12.38,0,0,1,171.78,85h0V54.76L157.84,84.22a3,3,0,0,1-1.15,1.28h0a3.62,3.62,0,0,1-3.73,0l-.11-.07a2.65,2.65,0,0,1-1-1.09l-14-30V85h0a12.38,12.38,0,0,1-12.38-12.38V26.36h9.73A4.8,4.8,0,0,1,139.57,29.16Z"/><path class="cls-21" d="M265,59.32c3.21.94,6.61,1,9.9,1.6a6.36,6.36,0,0,1,3.45,1.44,6.13,6.13,0,0,1,1.4,4.38,7.55,7.55,0,0,1-.74,3.73,6.73,6.73,0,0,1-4.84,3c-1.06.18-10.78.27-16.81.26a4.76,4.76,0,0,0-4.78,4.79v.65c0,1.44.11,4.82.11,4.82s22.68.14,24.19-.18a27,27,0,0,0,2.74-.72,16.87,16.87,0,0,0,9.69-7.47A17.91,17.91,0,0,0,288.77,58a16.83,16.83,0,0,0-9.45-7.13c-3.44-1-7.12-.86-10.62-1.62a6,6,0,0,1-3.6-1.86,5.68,5.68,0,0,1-1-3.17,8.68,8.68,0,0,1,.51-4.08c1.42-3.36,5.69-3.7,8.86-3.7,6.2,0,17.78.1,17.78.1l0-5.53a4.76,4.76,0,0,0-4.71-4.8c-6.64-.07-18.07-.15-19.58.17a26.3,26.3,0,0,0-2.74.72,16.86,16.86,0,0,0-9.7,7.47c-5.15,9.21,0,21.26,9.86,24.53l.13,0A4.58,4.58,0,0,0,265,59.32Z"/><path class="cls-21" d="M18.53,23.5,18.2,86.36,17.86,86h0a48.63,48.63,0,0,1,.68-62.44Z"/><path class="cls-21" d="M47.51,55.29v47.87a48.44,48.44,0,0,1-18.67-7.31V40.44A41.17,41.17,0,0,1,38.5,45.7,36,36,0,0,1,47.51,55.29Z"/><path class="cls-21" d="M82.05,40.44V96a48.41,48.41,0,0,1-18.67,7.21V55.29a36,36,0,0,1,9-9.59A41.17,41.17,0,0,1,82.05,40.44Z"/><path class="cls-21" d="M104.25,55.13A48.46,48.46,0,0,1,93.37,85.81c-.33.41-.67.82-1,1.22V23.23a47.84,47.84,0,0,1,5.35,7.49s0,0,0,0A48.44,48.44,0,0,1,104.25,55.13Z"/><path class="cls-21" d="M84.78,16.23C82.56,17,74.29,20.44,69,24.47A69.61,69.61,0,0,0,55.4,38.84,56.49,56.49,0,0,0,43.11,24.79C38.75,21.31,28.62,16.9,26.56,16A48.3,48.3,0,0,1,39.07,9.3l.1,0a51.43,51.43,0,0,1,34,.44l0,0A46.65,46.65,0,0,1,84.78,16.23Z"/><path class="cls-21" d="M106.94,35.07A60.34,60.34,0,0,1,110,52.59a57.3,57.3,0,0,1-.07,7.52c-1.48,19-12.43,32.42-27.87,41.11v3.56a55.95,55.95,0,0,0,24.84-69.71Z"/><path class="cls-21" d="M.17,60.17a55.72,55.72,0,0,0,28.66,44.61v-3.56C13.39,92.53,2.45,79.1,1,60.11A57.3,57.3,0,0,1,.9,52.59,60.34,60.34,0,0,1,4,35.07,55.58,55.58,0,0,0,.17,60.17Z"/><path class="cls-21" d="M55.59,0h-.07A55.55,55.55,0,0,0,21.87,11.41c-1,.75-1.37,1.1-1.37,1.1A61.89,61.89,0,0,1,55.52.92h.07a61.89,61.89,0,0,1,35,11.61,11,11,0,0,0-1.32-1.08A55.64,55.64,0,0,0,55.59,0Z"/></g></g></svg>