<?xml version="1.0" ?><!DOCTYPE svg  PUBLIC '-//W3C//DTD SVG 1.1//EN'  'http://www.w3.org/Graphics/SVG/1.1/DTD/svg11.dtd'>
<svg xmlns="http://www.w3.org/2000/svg" width="16" height="16" viewBox="0 0 16 16">
  <g id="UPVOTE" transform="translate(-1128.282 -712.282)">
    <g id="Elipse_2" data-name="Elipse 2" transform="translate(1128.282 712.282)" fill="#fff" stroke="#229ac4" stroke-width="1">
      <circle cx="8" cy="8" r="8" stroke="none"/>
      <circle cx="8" cy="8" r="7.5" fill="none"/>
    </g>
    <path id="Icon_awesome-music" data-name="Icon awesome-music" d="M8.282.517A.517.517,0,0,0,7.609.024L2.433,1.552a.517.517,0,0,0-.362.493V6.275a2.238,2.238,0,0,0-.518-.063C.7,6.211,0,6.675,0,7.247S.7,8.282,1.553,8.282s1.553-.463,1.553-1.035V3.466L7.247,2.253V5.239a2.238,2.238,0,0,0-.518-.063c-.858,0-1.553.463-1.553,1.035s.7,1.035,1.553,1.035,1.553-.463,1.553-1.035V.517Z" transform="translate(1131.796 716.142)" fill="#229ac4"/>
  </g>
</svg>

